<svg width="530" height="340" xmlns="http://www.w3.org/2000/svg" xmlns:xlink="http://www.w3.org/1999/xlink" overflow="hidden"><defs><clipPath id="clip0"><rect x="268" y="134" width="530" height="340"/></clipPath><clipPath id="clip1"><rect x="268" y="135" width="529" height="338"/></clipPath><clipPath id="clip2"><rect x="268" y="135" width="529" height="338"/></clipPath><clipPath id="clip3"><rect x="301" y="149" width="482" height="261"/></clipPath><clipPath id="clip4"><rect x="301" y="149" width="482" height="261"/></clipPath><clipPath id="clip5"><rect x="268" y="135" width="529" height="338"/></clipPath><clipPath id="clip6"><rect x="268" y="135" width="529" height="338"/></clipPath><clipPath id="clip7"><rect x="268" y="135" width="529" height="338"/></clipPath><clipPath id="clip8"><rect x="268" y="135" width="529" height="338"/></clipPath><clipPath id="clip9"><rect x="268" y="135" width="529" height="338"/></clipPath><clipPath id="clip10"><rect x="268" y="135" width="529" height="338"/></clipPath><clipPath id="clip11"><rect x="268" y="135" width="529" height="338"/></clipPath><clipPath id="clip12"><rect x="268" y="135" width="529" height="338"/></clipPath><clipPath id="clip13"><rect x="268" y="135" width="529" height="338"/></clipPath><clipPath id="clip14"><rect x="268" y="135" width="529" height="338"/></clipPath><clipPath id="clip15"><rect x="268" y="135" width="529" height="338"/></clipPath><clipPath id="clip16"><rect x="268" y="135" width="529" height="338"/></clipPath><clipPath id="clip17"><rect x="268" y="135" width="529" height="338"/></clipPath><clipPath id="clip18"><rect x="268" y="135" width="529" height="338"/></clipPath><clipPath id="clip19"><rect x="268" y="135" width="529" height="338"/></clipPath><clipPath id="clip20"><rect x="268" y="135" width="529" height="338"/></clipPath><clipPath id="clip21"><rect x="268" y="135" width="529" height="338"/></clipPath><clipPath id="clip22"><rect x="268" y="135" width="529" height="338"/></clipPath><clipPath id="clip23"><rect x="268" y="135" width="529" height="338"/></clipPath><clipPath id="clip24"><rect x="268" y="135" width="529" height="338"/></clipPath><clipPath id="clip25"><rect x="268" y="135" width="529" height="338"/></clipPath></defs><g clip-path="url(#clip0)" transform="translate(-268 -134)"><g clip-path="url(#clip1)"><path d="M301.5 377.5 782.5 377.5M301.5 344.5 782.5 344.5M301.5 312.5 782.5 312.5M301.5 279.5 782.5 279.5M301.5 247.5 782.5 247.5M301.5 214.5 782.5 214.5M301.5 182.5 782.5 182.5M301.5 149.5 782.5 149.5" stroke="#D9D9D9" stroke-linejoin="round" stroke-miterlimit="10" fill="none"/></g><g clip-path="url(#clip2)"><path d="M301.5 409.5 782.5 409.5" stroke="#D9D9D9" stroke-linejoin="round" stroke-miterlimit="10" fill="none" fill-rule="evenodd"/></g><g clip-path="url(#clip3)"><path d="M331.5 260.5 392.5 253.5 452.5 253.5 512.5 240.5 572.5 234.5 632.5 240.5 692.5 240.5 752.5 240.5" stroke="#4472C4" stroke-width="3" stroke-linecap="round" stroke-linejoin="round" stroke-miterlimit="10" fill="none"/></g><g clip-path="url(#clip4)"><path d="M331.5 201.5 392.5 201.5 452.5 188.5 512.5 195.5 572.5 188.5 632.5 182.5 692.5 188.5 752.5 201.5" stroke="#ED7D31" stroke-width="3" stroke-linecap="round" stroke-linejoin="round" stroke-miterlimit="10" fill="none"/></g><g clip-path="url(#clip5)"><text fill="#595959" font-family="Yu Gothic,Yu Gothic_MSFontService,sans-serif" font-weight="400" transform="translate(283.54 413)">0</text></g><g clip-path="url(#clip6)"><text fill="#595959" font-family="Yu Gothic,Yu Gothic_MSFontService,sans-serif" font-weight="400" transform="translate(283.54 381)">5</text></g><g clip-path="url(#clip7)"><text fill="#595959" font-family="Yu Gothic,Yu Gothic_MSFontService,sans-serif" font-weight="400" transform="translate(276.867 348)">10</text></g><g clip-path="url(#clip8)"><text fill="#595959" font-family="Yu Gothic,Yu Gothic_MSFontService,sans-serif" font-weight="400" transform="translate(276.867 316)">15</text></g><g clip-path="url(#clip9)"><text fill="#595959" font-family="Yu Gothic,Yu Gothic_MSFontService,sans-serif" font-weight="400" transform="translate(276.867 283)">20</text></g><g clip-path="url(#clip10)"><text fill="#595959" font-family="Yu Gothic,Yu Gothic_MSFontService,sans-serif" font-weight="400" transform="translate(276.867 251)">25</text></g><g clip-path="url(#clip11)"><text fill="#595959" font-family="Yu Gothic,Yu Gothic_MSFontService,sans-serif" font-weight="400" transform="translate(276.867 218)">30</text></g><g clip-path="url(#clip12)"><text fill="#595959" font-family="Yu Gothic,Yu Gothic_MSFontService,sans-serif" font-weight="400" transform="translate(276.867 186)">35</text></g><g clip-path="url(#clip13)"><text fill="#595959" font-family="Yu Gothic,Yu Gothic_MSFontService,sans-serif" font-weight="400" transform="translate(276.867 153)">40</text></g><g clip-path="url(#clip14)"><text fill="#595959" font-family="Yu Gothic,Yu Gothic_MSFontService,sans-serif" font-weight="400" transform="translate(325.257 430)">24</text></g><g clip-path="url(#clip15)"><text fill="#595959" font-family="Yu Gothic,Yu Gothic_MSFontService,sans-serif" font-weight="400" transform="translate(385.364 430)">25</text></g><g clip-path="url(#clip16)"><text fill="#595959" font-family="Yu Gothic,Yu Gothic_MSFontService,sans-serif" font-weight="400" transform="translate(445.471 430)">26</text></g><g clip-path="url(#clip17)"><text fill="#595959" font-family="Yu Gothic,Yu Gothic_MSFontService,sans-serif" font-weight="400" transform="translate(505.578 430)">27</text></g><g clip-path="url(#clip18)"><text fill="#595959" font-family="Yu Gothic,Yu Gothic_MSFontService,sans-serif" font-weight="400" transform="translate(565.685 430)">28</text></g><g clip-path="url(#clip19)"><text fill="#595959" font-family="Yu Gothic,Yu Gothic_MSFontService,sans-serif" font-weight="400" transform="translate(625.792 430)">29</text></g><g clip-path="url(#clip20)"><text fill="#595959" font-family="Yu Gothic,Yu Gothic_MSFontService,sans-serif" font-weight="400" transform="translate(685.899 430)">30</text></g><g clip-path="url(#clip21)"><text fill="#595959" font-family="Yu Gothic,Yu Gothic_MSFontService,sans-serif" font-weight="400" transform="translate(746.006 430)">31</text></g><g clip-path="url(#clip22)"><path d="M477.5 453.5 502.5 453.5" stroke="#4472C4" stroke-width="3" stroke-linecap="round" stroke-linejoin="round" stroke-miterlimit="10" fill="none" fill-rule="evenodd"/></g><g clip-path="url(#clip23)"><text fill="#595959" font-family="Yu Gothic,Yu Gothic_MSFontService,sans-serif" font-weight="400" transform="translate(505.567 456)">最低</text></g><g clip-path="url(#clip24)"><path d="M540.5 453.5 566.5 453.5" stroke="#ED7D31" stroke-width="3" stroke-linecap="round" stroke-linejoin="round" stroke-miterlimit="10" fill="none" fill-rule="evenodd"/></g><g clip-path="url(#clip25)"><text fill="#595959" font-family="Yu Gothic,Yu Gothic_MSFontService,sans-serif" font-weight="400" transform="translate(569.033 456)">最高</text></g></g></svg>